<?xml version="1.0" encoding="utf-8"?>
<!-- Generator: Adobe Illustrator 22.1.0, SVG Export Plug-In . SVG Version: 6.00 Build 0)  -->
<svg version="1.1" id="Layer_1" xmlns="http://www.w3.org/2000/svg" xmlns:xlink="http://www.w3.org/1999/xlink" x="0px" y="0px"
	 viewBox="0 0 628.7 58.1" style="enable-background:new 0 0 628.7 58.1;" xml:space="preserve">
<style type="text/css">
	.st0{fill:none;stroke:#000000;stroke-width:4;stroke-linecap:round;stroke-miterlimit:10;}
</style>
<g id="decoration_4_1_">
	<g>
		<path d="M151.1,40L0,38l151.1-2c1.1,0,2,0.9,2,2C153.1,39.1,152.2,40,151.1,40C151.1,40,151.1,40,151.1,40z"/>
	</g>
	<g>
		<path d="M477.7,36l151.1,2l-151.1,2c-1.1,0-2-0.9-2-2C475.6,36.9,476.5,36,477.7,36C477.6,36,477.6,36,477.7,36z"/>
	</g>
	<path class="st0" d="M151.1,38l89,0c1.1,0,2.1-0.4,2.8-1.2l11.5-11.5c1.6-1.6,4.1-1.6,5.7,0L289.7,55c1.6,1.6,4.1,1.6,5.7,0
		l14.8-14.8c1.6-1.6,1.6-4.1,0-5.7l-9.5-9.5c-1.6-1.6-4.1-1.6-5.7,0l-8.8,8.8c-1.6,1.6-1.6,4.1,0,5.7l2.6,2.6c1.6,1.6,4.1,1.6,5.7,0
		l2.8-2.8c1.6-1.6,1.6-4.1,0-5.7l-9.4-9.4l-6.5-6.5c-1.6-1.6-4.1-1.6-5.7,0l-11.7,11.7l-6.6,6.6c-1.6,1.6-1.6,4.1,0,5.7L259,43
		c1.6,1.5,4.1,1.5,5.6,0l27.8-27.8l12-12c1.6-1.6,4.1-1.6,5.7,0L320.9,14c1.6,1.6,1.6,4.1,0,5.7l-6.5,6.5l-6.5-6.5
		c-1.6-1.6-1.6-4.1,0-5.7l10.8-10.8c1.6-1.6,4.1-1.6,5.7,0l12,12L364.1,43c1.6,1.6,4.1,1.6,5.6,0l1.4-1.4c1.6-1.6,1.6-4.1,0-5.7
		l-6.6-6.6L353,17.7c-1.6-1.6-4.1-1.6-5.7,0l-6.5,6.5l-9.4,9.4c-1.6,1.6-1.6,4.1,0,5.7l2.8,2.8c1.6,1.6,4.1,1.6,5.7,0l2.6-2.6
		c1.6-1.6,1.6-4.1,0-5.7l-8.8-8.8c-1.6-1.6-4.1-1.6-5.7,0l-9.5,9.5c-1.6,1.6-1.6,4.1,0,5.7L333.4,55c1.6,1.6,4.1,1.6,5.7,0
		l29.7-29.7c1.6-1.6,4.1-1.6,5.7,0l11.5,11.5c0.8,0.8,1.8,1.2,2.8,1.2l89,0"/>
</g>
</svg>
